<svg xmlns="http://www.w3.org/2000/svg" viewBox="0 0 88.805 50.15" width="888.05" height="501.5">
<path fill="#00c" d="M 0,0 H 88.805 V 50.15 H 0 z"/>
<path fill="#ff0" d="M 0,5.8 C 3.6,5.15 7.4,2.9 9.3,0 H 27.6 L 24.7,7  42.7,0 c 15.321,0 30.64,0 46.805,0 V 1 L 49.078,15.333 H 88.805 V 32.203 H 49.227 L 88.805,49 V 50.15 H 47.3 L 36.4,45 c 1.76,1.7 2.7,2.9 4.7,5.15 h -23 C 12.7,46 6.5,43.7 0,43 V 5.8 z"/>
<path fill="#39f" d="M 21.5,48 C 19.28,45.992 17.8,45.143 15.379,43.695 10.709,41.12 6.2193,39.682 0,39.033 V 16 C 0,17 0,8 0,10  1,10 2.3,9.1 3.4,8.9  6.5094,7.9767 9.1393,6.1394 13,0 h 10 L 20.8,6 C 20.8,6 20.4,6.54 20.41,7.4275 c 0,2.2669 2.019,3.2155 3.969,3.1255  0.63,0 1.6,-0.13 2.12,-0.43 C 35.479,6.8284 44.468,3.6129 53.717,0  53.717,0 79.316,-0.04189 79.276,0  68.437,4.0622 56.937,8.0966 45.288,12.43 c -0.8,0.37 -1.6,1 -1.93,1.517  -0.351,0.789 -0.51,1.508 -0.331,2.356   0.171,0.799 0.741,1.428 1.7,2   0.791,0.438 1.4,0.498 2.47,0.618 H 88.805 v 9.2 H 47 c -1.231,0 -1.801,0.49 -2.73,1.398  -0.29,0.46 -0.571,0.53 -0.771,1.938  0.1,1.138 0.301,1.497 0.931,2.287  1.3,1 2.64,1.447 4.03,2.047 L 79.926,50.15 H 57 L 36.318,40.74 c -1.69,-0.56 -2.949,-0.101 -3.7,0.419  -0.919,0.729 -1.5,1.777 -1.389,2.997  0.1,0.668 0.68,1.696 1.08,2.205 l 3.62,3.8 c -4.1,0 -8.21,0 -12.3,0  -0.29,-0.6 -0.47,-0.6 -1.8,-1.9 z"/>
</svg>
